# xmcd
#
# Track frame offsets:
#  180
#  11648
#  17357
#  31581
#  37198
#  50484
#  53834
#  72338
#  77272
#  91041
#  93599
#  116601
#  122563
#  135466
#  138322
#  148851
#  153253
#  172080
#  177713
#  193248
#  200360
#  222560
#  228943
#  238141
#  244182
#  262387
#  269434
#  280536
#  286018
#  332277
#
# Disc length: 4585 seconds
#
# Revision: 0
# Processed by: cddbd v1.5.1PL0 Copyright (c) Steve Scherf et al.
# Submitted via: AltoMP3_Maker 3.0
#
DISCID=b111e71e
DTITLE=Midnight Romance - Time to Dance the Night Away
DYEAR=1900
DGENRE=
TTITLE0=Musicall in Theme
TTITLE1=Interlude 01
TTITLE2=Swansee
TTITLE3=Interlude 02
TTITLE4=On my Own
TTITLE5=Interlude 03
TTITLE6=Liza
TTITLE7=Interlude 04
TTITLE8=I Get a Kick Out of You
TTITLE9=Interlude 05
TTITLE10=I Should Care
TTITLE11=Interlude 06
TTITLE12=Theme from a Summer Place
TTITLE13=Interlude 07
TTITLE14=I Got Rhythm
TTITLE15=Interlude 08
TTITLE16=People
TTITLE17=Interlude 09
TTITLE18=I'll Never Be the Same
TTITLE19=Interlude 10
TTITLE20=Zigeu Unerweisen
TTITLE21=Interlude 11
TTITLE22=Midnight Blues
TTITLE23=Interlude 12
TTITLE24=Carnival of Venice
TTITLE25=Interlude 13
TTITLE26=Intimate Moments
TTITLE27=Interlude 14
TTITLE28=Andrew Lloyd Webber Suite
TTITLE29=Musicall in Theme - end
EXTD=
EXTT0=
EXTT1=
EXTT2=
EXTT3=
EXTT4=
EXTT5=
EXTT6=
EXTT7=
EXTT8=
EXTT9=
EXTT10=
EXTT11=
EXTT12=
EXTT13=
EXTT14=
EXTT15=
EXTT16=
EXTT17=
EXTT18=
EXTT19=
EXTT20=
EXTT21=
EXTT22=
EXTT23=
EXTT24=
EXTT25=
EXTT26=
EXTT27=
EXTT28=
EXTT29=
PLAYORDER=
